<svg xmlns="http://www.w3.org/2000/svg" xmlns:xlink="http://www.w3.org/1999/xlink" version="1.1" id="Layer_1" x="0px" y="0px" style="enable-background:new 0 0 1920 1080;" xml:space="preserve" viewBox="696.32 350.43 527.36 379.12">
<style type="text/css">
	.st0{fill:#008532;}
	.st1{fill:#00E657;}
	.st2{fill:#00FF60;}
	.st3{fill:#00CC4D;}
</style>
<g>
	<g>
		<path class="st0" d="M772.4,365.23c-5.03,0-30.45,0.05-30.45,0.05v12.17v311.41h211.08l12.91,40.69l29.8,0    c4.76,0,9-3.48,9.45-8.22c0.51-5.43-3.74-9.99-9.06-9.99h-16.84l-12.91-40.69H760.16V382.21l281.2,266.48L772.4,365.23z"/>
	</g>
	<g>
		<path class="st1" d="M1142.81,665.35h80.87V396.75l-139.85,151.6c-10.31,11.18-17.33,25.29-18.63,40.44    c-1.97,22.94,7.45,40.95,22.35,56.18c1.35,1.38,2.98,2.74,4.79,4.11C1106.82,659.96,1124.7,665.35,1142.81,665.35z"/>
	</g>
	<g>
		<path class="st2" d="M1004.12,649.84H699.4l-0.47-41.99h53.9c42.95,0,66.33-50.18,38.7-83.07l-94.61-112.6l-0.6-57.07    c-0.07-4.16,4.09-6.28,6.5-3.26L1004.12,649.84z"/>
	</g>
	<g>
		<polygon class="st3" points="1038.69,499.01 898.19,350.44 1173.29,352.02   "/>
	</g>
</g>
</svg>